<?xml version="1.0" encoding="UTF-8" standalone="no"?>
<svg
   xmlns:dc="http://purl.org/dc/elements/1.1/"
   xmlns:cc="http://creativecommons.org/ns#"
   xmlns:rdf="http://www.w3.org/1999/02/22-rdf-syntax-ns#"
   xmlns:svg="http://www.w3.org/2000/svg"
   xmlns="http://www.w3.org/2000/svg"
   xmlns:sodipodi="http://sodipodi.sourceforge.net/DTD/sodipodi-0.dtd"
   xmlns:inkscape="http://www.inkscape.org/namespaces/inkscape"
   width="350"
   height="350"
   viewBox="0 0 92.604164 92.604173"
   version="1.1"
   id="svg976"
   inkscape:version="1.0.1 (3bc2e813f5, 2020-09-07)"
   sodipodi:docname="icon.svg">
  <defs
     id="defs970" />
  <sodipodi:namedview
     id="base"
     pagecolor="#ffffff"
     bordercolor="#666666"
     borderopacity="1.0"
     inkscape:pageopacity="0.0"
     inkscape:pageshadow="2"
     inkscape:zoom="11.313709"
     inkscape:cx="138.19576"
     inkscape:cy="172.08046"
     inkscape:document-units="mm"
     inkscape:current-layer="g875"
     inkscape:document-rotation="0"
     showgrid="true"
     inkscape:snap-global="false"
     units="px"
     inkscape:window-width="1920"
     inkscape:window-height="1016"
     inkscape:window-x="0"
     inkscape:window-y="0"
     inkscape:window-maximized="1">
    <inkscape:grid
       type="xygrid"
       id="grid978"
       spacingx="1.3229167"
       spacingy="1.3229167"
       empspacing="10" />
  </sodipodi:namedview>
  <metadata
     id="metadata973">
    <rdf:RDF>
      <cc:Work
         rdf:about="">
        <dc:format>image/svg+xml</dc:format>
        <dc:type
           rdf:resource="http://purl.org/dc/dcmitype/StillImage" />
        <dc:title />
      </cc:Work>
    </rdf:RDF>
  </metadata>
  <g
     inkscape:label="Layer 1"
     inkscape:groupmode="layer"
     id="layer1">
    <g
       id="g875"
       transform="matrix(0.98743121,0,0,0.98743121,-53.956381,-14.148998)">
      <ellipse
         style="fill:#808080;fill-opacity:1;stroke:#ffffff;stroke-width:2.11667;stroke-linejoin:round;stroke-miterlimit:4;stroke-dasharray:none;stroke-opacity:1"
         id="path984"
         cx="101.39079"
         cy="60.984985"
         rx="45.689278"
         ry="45.597553" />
      <circle
         style="fill:#666666;fill-opacity:0.656742;stroke:#ffffff;stroke-width:5.29167;stroke-linejoin:round;stroke-miterlimit:4;stroke-dasharray:none;stroke-opacity:1"
         id="path980"
         cx="101.20078"
         cy="61.241219"
         r="6.614583" />
      <path
         id="path1557"
         style="fill:none;fill-rule:evenodd;stroke:#fefefe;stroke-width:2.64583;stroke-linecap:round;stroke-miterlimit:4;stroke-dasharray:none;stroke-opacity:1"
         d="m 108.13888,62.258162 c -0.57898,2.965432 -0.14679,6.091509 -7.93868,11.090243 -6.797723,4.360956 -17.553317,2.995806 -20.400887,2.543428 C 66.46133,73.752307 54.969725,58.121378 59.345851,44.468294 c 2.457034,-5.600797 2.029219,-4.517619 2.59181,-5.520802"
         sodipodi:nodetypes="csccc" />
      <path
         id="path1564"
         style="fill:none;fill-rule:evenodd;stroke:#ffffff;stroke-width:2.64583;stroke-linecap:round;stroke-linejoin:round;stroke-miterlimit:4;stroke-dasharray:none;paint-order:markers stroke fill;stroke-opacity:1"
         d="m 98.634763,66.995902 c -2.96543,-0.57897 -6.09151,-0.14679 -11.09024,-7.93867 -4.36096,-6.79773 -2.99581,-17.55332 -2.54343,-20.40089 2.13953,-13.337982 17.770457,-24.829592 31.423537,-20.453462 5.6008,2.45703 4.51762,2.02922 5.5208,2.59181"
         sodipodi:nodetypes="csccc" />
      <path
         id="path1560"
         style="fill:none;fill-rule:evenodd;stroke:#ffffff;stroke-width:2.64583;stroke-linecap:round;stroke-miterlimit:4;stroke-dasharray:none;stroke-opacity:1"
         d="m 101.51075,54.095132 c 2.96543,0.57897 6.09151,0.14679 11.09024,7.93867 4.36096,6.79773 2.99581,17.55332 2.54343,20.40089 -2.13953,13.33798 -17.770457,24.829588 -31.423537,20.453458 -5.6008,-2.45703 -4.51762,-2.02922 -5.5208,-2.59181"
         sodipodi:nodetypes="csccc" />
      <path
         id="path1562"
         style="fill:none;fill-rule:evenodd;stroke:#ffffff;stroke-width:2.64583;stroke-linecap:round;stroke-miterlimit:4;stroke-dasharray:none;stroke-opacity:1"
         d="m 94.664953,60.606402 c 0.57897,-2.96543 0.14679,-6.09151 7.938667,-11.09024 6.79773,-4.36096 17.55332,-2.99581 20.40089,-2.54343 13.33798,2.13953 24.82959,17.77046 20.45346,31.42354 -2.45703,5.6008 -2.02922,4.51762 -2.59181,5.5208"
         sodipodi:nodetypes="csccc" />
    </g>
  </g>
</svg>
