<?xml version="1.0" encoding="UTF-8" standalone="no"?>
<!-- Created with Inkscape (http://www.inkscape.org/) -->

<svg
   width="2100"
   height="580"
   viewBox="0 0 555.62498 153.45833"
   version="1.1"
   id="svg5"
   xml:space="preserve"
   inkscape:version="1.2.2 (b0a8486541, 2022-12-01)"
   sodipodi:docname="logo_ok_withname.svg"
   xmlns:inkscape="http://www.inkscape.org/namespaces/inkscape"
   xmlns:sodipodi="http://sodipodi.sourceforge.net/DTD/sodipodi-0.dtd"
   xmlns="http://www.w3.org/2000/svg"
   xmlns:svg="http://www.w3.org/2000/svg"><sodipodi:namedview
     id="namedview7"
     pagecolor="#ffffff"
     bordercolor="#000000"
     borderopacity="0.25"
     inkscape:showpageshadow="2"
     inkscape:pageopacity="0.0"
     inkscape:pagecheckerboard="0"
     inkscape:deskcolor="#d1d1d1"
     inkscape:document-units="mm"
     showgrid="true"
     showguides="true"
     inkscape:zoom="0.5"
     inkscape:cx="993"
     inkscape:cy="570"
     inkscape:window-width="1920"
     inkscape:window-height="1011"
     inkscape:window-x="0"
     inkscape:window-y="0"
     inkscape:window-maximized="1"
     inkscape:current-layer="layer1"><inkscape:grid
       type="xygrid"
       id="grid3590"
       originx="0"
       originy="0" /></sodipodi:namedview><defs
     id="defs2" /><g
     inkscape:label="Layer 1"
     inkscape:groupmode="layer"
     id="layer1"><g
       id="g1593"
       transform="translate(-30.947079,-29.104177)"><circle
         style="fill:#555555;fill-opacity:1;stroke:#dcdcdc;stroke-width:7.9375;stroke-dasharray:none;stroke-opacity:1;paint-order:stroke fill markers"
         id="path4474"
         cx="105.83334"
         cy="105.83334"
         r="66.145836" /><path
         id="path38635"
         style="fill:none;fill-rule:evenodd;stroke:#e1e1e1;stroke-width:3.05628;stroke-linecap:round;stroke-dasharray:none;stroke-opacity:1"
         d="m 298.71041,31.694655 c -4.3811,11.564988 -20.02598,16.648356 -31.69388,14.022512 -24.89179,-5.601861 -35.16241,-34.371539 -27.69791,-56.864385 8.49096,-25.585874 35.2239,-40.425487 61.4248,-38.427984"
         inkscape:transform-center-x="18.541459"
         inkscape:transform-center-y="-26.084297"
         transform="matrix(0.86570326,0,0,0.86570326,-145.43827,81.203943)" /><path
         id="path39543"
         style="fill:none;fill-rule:evenodd;stroke:#e1e1e1;stroke-width:2.646;stroke-linecap:round;stroke-dasharray:none;stroke-opacity:1"
         d="M 103.02879,113.15306 C 93.016944,109.36032 88.616256,95.816499 90.889458,85.71556 95.739007,64.166656 120.64501,55.275347 140.11714,61.737389 c 22.14978,7.350652 34.99648,30.493445 33.26723,53.175651"
         inkscape:transform-center-x="-26.084297"
         inkscape:transform-center-y="-18.541458" /><path
         id="path39545"
         style="fill:none;fill-rule:evenodd;stroke:#e1e1e1;stroke-width:2.64583;stroke-linecap:round;stroke-dasharray:none;stroke-opacity:1"
         d="m 98.51784,103.02554 c 3.79274,-10.011846 17.33656,-14.412534 27.4375,-12.139332 21.5489,4.849549 30.44021,29.755552 23.97817,49.227682 -7.35065,22.14978 -30.49344,34.99648 -53.17565,33.26723"
         inkscape:transform-center-x="-18.541457"
         inkscape:transform-center-y="26.084297" /><path
         id="path39547"
         style="fill:none;fill-rule:evenodd;stroke:#e1e1e1;stroke-width:2.64583;stroke-linecap:round;stroke-dasharray:none;stroke-opacity:1"
         d="m 108.64536,98.51459 c 10.01185,3.79274 14.41253,17.33656 12.13933,27.4375 -4.84955,21.5489 -29.75555,30.44021 -49.22768,23.97817 C 49.40723,142.57961 36.56053,119.43682 38.28978,96.75461"
         inkscape:transform-center-x="26.084298"
         inkscape:transform-center-y="18.541457" /><ellipse
         style="fill:#ffffff;fill-opacity:1;stroke:#e6e6e6;stroke-width:13.22919998;stroke-linecap:butt;stroke-linejoin:round;stroke-dasharray:none;stroke-opacity:1;paint-order:stroke fill markers"
         id="circle6036"
         cx="105.83334"
         cy="105.83334"
         rx="3.3072908"
         ry="3.307291" /></g><g
       id="g2010"
       transform="matrix(3.2071091,0,0,3.2071091,-521.29632,-265.77959)"
       style="fill:#f2f2f2"><path
         style="color:#000000;font-size:16.9333px;-inkscape-font-specification:'sans-serif Bold';fill:#f2f2f2;stroke:none;stroke-width:7.937;stroke-linecap:butt;stroke-linejoin:miter;-inkscape-stroke:none;paint-order:stroke fill markers"
         d="m 214.5024,99.108987 q 2.42146,0 3.65759,0.677332 1.23613,0.677331 1.23613,2.387591 0,0.67734 -0.22013,1.23614 -0.22013,0.55879 -0.64347,0.91439 -0.4064,0.3556 -0.99906,0.4572 v 0.0847 q 0.6096,0.11853 1.10066,0.42333 0.49107,0.3048 0.77893,0.88053 0.28787,0.57574 0.28787,1.524 0,1.10067 -0.54187,1.89653 -0.52493,0.77893 -1.52399,1.20226 -0.99907,0.4064 -2.37066,0.4064 h -4.5212 V 99.108987 Z m 0.28786,4.792123 q 1.1176,0 1.54093,-0.3556 0.44027,-0.3556 0.44027,-1.03293 0,-0.69426 -0.508,-0.99906 -0.508,-0.3048 -1.60866,-0.3048 h -1.35467 v 2.69239 z m -1.49013,2.032 v 3.14959 h 1.6764 q 1.15146,0 1.60866,-0.44026 0.4572,-0.4572 0.4572,-1.20227 0,-0.4572 -0.2032,-0.79586 -0.18626,-0.33867 -0.6604,-0.52494 -0.47413,-0.18626 -1.28693,-0.18626 z"
         id="path1755" /><path
         style="color:#000000;font-size:16.9333px;-inkscape-font-specification:'sans-serif Bold';fill:#f2f2f2;stroke:none;stroke-width:7.937;stroke-linecap:butt;stroke-linejoin:miter;-inkscape-stroke:none;paint-order:stroke fill markers"
         d="m 225.72919,101.78445 q 1.28693,0 2.20133,0.49106 0.93133,0.49107 1.43933,1.4224 0.508,0.93133 0.508,2.286 v 1.21919 h -5.96052 q 0.0339,1.0668 0.62653,1.6764 0.6096,0.6096 1.6764,0.6096 0.89746,0 1.62559,-0.16933 0.72813,-0.18627 1.50707,-0.5588 v 1.94733 q -0.67734,0.33866 -1.43933,0.49106 -0.74507,0.16934 -1.81187,0.16934 -1.38853,0 -2.45533,-0.508 -1.06679,-0.52493 -1.67639,-1.5748 -0.6096,-1.04986 -0.6096,-2.64159 0,-1.6256 0.54186,-2.6924 0.5588,-1.08373 1.54093,-1.6256 0.98214,-0.54186 2.286,-0.54186 z m 0.0169,1.79493 q -0.72813,0 -1.21919,0.47413 -0.47414,0.47413 -0.5588,1.4732 h 3.53906 q 0,-0.5588 -0.2032,-0.99907 -0.18627,-0.44026 -0.57574,-0.69426 -0.38946,-0.254 -0.98213,-0.254 z"
         id="path1761" /><path
         style="color:#000000;font-size:16.9333px;-inkscape-font-specification:'sans-serif Bold';fill:#f2f2f2;stroke:none;stroke-width:7.937;stroke-linecap:butt;stroke-linejoin:miter;-inkscape-stroke:none;paint-order:stroke fill markers"
         d="m 237.17609,101.78445 q 1.49013,0 2.3876,0.8128 0.89746,0.79586 0.89746,2.57386 v 6.02825 h -2.52306 v -5.40172 q 0,-0.99906 -0.3556,-1.49013 -0.3556,-0.508 -1.13453,-0.508 -1.15146,0 -1.5748,0.79587 -0.42333,0.77893 -0.42333,2.25213 v 4.35185 h -2.52306 v -9.24558 h 1.9304 l 0.33866,1.18533 h 0.13547 q 0.3048,-0.47413 0.74506,-0.762 0.44027,-0.3048 0.98213,-0.44026 0.54187,-0.1524 1.1176,-0.1524 z"
         id="path1767" /><path
         style="color:#000000;font-size:16.9333px;-inkscape-font-specification:'sans-serif Bold';fill:#f2f2f2;stroke:none;stroke-width:7.937;stroke-linecap:butt;stroke-linejoin:miter;-inkscape-stroke:none;paint-order:stroke fill markers"
         d="m 242.30688,115.26336 q -0.42334,0 -0.88054,-0.0677 -0.47413,-0.0508 -0.77893,-0.13546 v -1.9812 q 0.3048,0.0677 0.57573,0.1016 0.27094,0.0508 0.6096,0.0508 0.508,0 0.8636,-0.28787 0.3556,-0.28786 0.3556,-1.11759 v -9.87212 h 2.52306 v 10.24465 q 0,0.84666 -0.32173,1.54093 -0.32173,0.69426 -1.04986,1.10066 -0.7112,0.42334 -1.89653,0.42334 z m 0.64346,-15.697173 q 0,-0.711199 0.38947,-0.965199 0.4064,-0.270932 0.98213,-0.270932 0.5588,0 0.9652,0.270932 0.4064,0.254 0.4064,0.965199 0,0.694263 -0.4064,0.965193 -0.4064,0.27094 -0.9652,0.27094 -0.57573,0 -0.98213,-0.27094 -0.38947,-0.27093 -0.38947,-0.965193 z"
         id="path1773" /><path
         style="color:#000000;font-size:16.9333px;-inkscape-font-specification:'sans-serif Bold';fill:#f2f2f2;stroke:none;stroke-width:7.937;stroke-linecap:butt;stroke-linejoin:miter;-inkscape-stroke:none;paint-order:stroke fill markers"
         d="m 252.00966,101.76752 q 1.86266,0 2.8448,0.81279 0.99906,0.79587 0.99906,2.45533 v 6.16372 h -1.76106 l -0.49107,-1.25306 h -0.0677 q -0.38947,0.49107 -0.8128,0.8128 -0.4064,0.32173 -0.94826,0.4572 -0.52494,0.1524 -1.30387,0.1524 -0.8128,0 -1.4732,-0.3048 -0.64346,-0.32174 -1.01599,-0.9652 -0.37254,-0.6604 -0.37254,-1.65946 0,-1.4732 1.03294,-2.16747 1.03293,-0.7112 3.09879,-0.77893 l 1.60866,-0.0508 v -0.4064 q 0,-0.72813 -0.38946,-1.0668 -0.37254,-0.33866 -1.04987,-0.33866 -0.67733,0 -1.3208,0.2032 -0.64346,0.18626 -1.28693,0.47413 l -0.82973,-1.71026 q 0.74507,-0.38947 1.64253,-0.6096 0.9144,-0.22013 1.89653,-0.22013 z m 0.3556,5.18159 q -1.2192,0.0339 -1.69333,0.44026 -0.47413,0.4064 -0.47413,1.0668 0,0.57573 0.33866,0.82973 0.33867,0.23707 0.88054,0.23707 0.81279,0 1.37159,-0.47414 0.5588,-0.49106 0.5588,-1.37159 v -0.762 z"
         id="path1779" /><path
         style="color:#000000;font-size:16.9333px;-inkscape-font-specification:'sans-serif Bold';fill:#f2f2f2;stroke:none;stroke-width:7.937;stroke-linecap:butt;stroke-linejoin:miter;-inkscape-stroke:none;paint-order:stroke fill markers"
         d="m 269.29856,101.78445 q 1.5748,0 2.37066,0.8128 0.8128,0.79586 0.8128,2.57386 v 6.02825 h -2.52306 v -5.40172 q 0,-0.99906 -0.33866,-1.49013 -0.33867,-0.508 -1.04987,-0.508 -0.99906,0 -1.4224,0.7112 -0.42333,0.7112 -0.42333,2.04893 v 4.63972 h -2.52306 v -5.40172 q 0,-0.6604 -0.1524,-1.10066 -0.1524,-0.44027 -0.4572,-0.6604 -0.3048,-0.23707 -0.77893,-0.23707 -0.69427,0 -1.10067,0.3556 -0.40639,0.3556 -0.57573,1.03293 -0.16933,0.67733 -0.16933,1.65947 v 4.35185 h -2.52306 v -9.24558 h 1.93039 l 0.33867,1.18533 h 0.13547 q 0.28786,-0.47413 0.71119,-0.762 0.42334,-0.3048 0.93134,-0.44026 0.52493,-0.1524 1.04986,-0.1524 1.016,0 1.7272,0.33866 0.7112,0.32174 1.08373,1.016 h 0.22013 q 0.42333,-0.7112 1.1684,-1.03293 0.762,-0.32173 1.55786,-0.32173 z"
         id="path1785" /><path
         style="color:#000000;font-size:16.9333px;-inkscape-font-specification:'sans-serif Bold';fill:#f2f2f2;stroke:none;stroke-width:7.937;stroke-linecap:butt;stroke-linejoin:miter;-inkscape-stroke:none;paint-order:stroke fill markers"
         d="m 277.59589,101.95378 v 9.24558 h -2.52306 v -9.24558 z m -1.25307,-3.623724 q 0.5588,0 0.9652,0.270932 0.4064,0.254 0.4064,0.965199 0,0.694263 -0.4064,0.965193 -0.4064,0.27094 -0.9652,0.27094 -0.57573,0 -0.98213,-0.27094 -0.38946,-0.27093 -0.38946,-0.965193 0,-0.711199 0.38946,-0.965199 0.4064,-0.270932 0.98213,-0.270932 z"
         id="path1791" /><path
         style="color:#000000;font-size:16.9333px;-inkscape-font-specification:'sans-serif Bold';fill:#f2f2f2;stroke:none;stroke-width:7.937;stroke-linecap:butt;stroke-linejoin:miter;-inkscape-stroke:none;paint-order:stroke fill markers"
         d="m 285.48681,101.78445 q 1.49013,0 2.38759,0.8128 0.89747,0.79586 0.89747,2.57386 v 6.02825 h -2.52306 v -5.40172 q 0,-0.99906 -0.3556,-1.49013 -0.3556,-0.508 -1.13453,-0.508 -1.15147,0 -1.5748,0.79587 -0.42333,0.77893 -0.42333,2.25213 v 4.35185 h -2.52307 v -9.24558 h 1.9304 l 0.33867,1.18533 h 0.13546 q 0.3048,-0.47413 0.74507,-0.762 0.44026,-0.3048 0.98213,-0.44026 0.54187,-0.1524 1.1176,-0.1524 z"
         id="path1797" /><path
         style="color:#000000;font-size:16.9333px;-inkscape-font-specification:'sans-serif Bold';fill:#f2f2f2;stroke:none;stroke-width:7.937;stroke-linecap:butt;stroke-linejoin:miter;-inkscape-stroke:none;paint-order:stroke fill markers"
         d="m 298.49158,111.19936 h -2.52306 V 99.108987 h 6.92572 v 2.099733 h -4.40266 v 3.11572 h 4.09786 v 2.09973 h -4.09786 z"
         id="path1803" /><path
         style="color:#000000;font-size:16.9333px;-inkscape-font-specification:'sans-serif Bold';fill:#f2f2f2;stroke:none;stroke-width:7.937;stroke-linecap:butt;stroke-linejoin:miter;-inkscape-stroke:none;paint-order:stroke fill markers"
         d="m 308.85475,101.76752 q 1.86267,0 2.8448,0.81279 0.99906,0.79587 0.99906,2.45533 v 6.16372 h -1.76106 l -0.49107,-1.25306 h -0.0677 q -0.38946,0.49107 -0.8128,0.8128 -0.4064,0.32173 -0.94826,0.4572 -0.52493,0.1524 -1.30387,0.1524 -0.81279,0 -1.47319,-0.3048 -0.64347,-0.32174 -1.016,-0.9652 -0.37253,-0.6604 -0.37253,-1.65946 0,-1.4732 1.03293,-2.16747 1.03293,-0.7112 3.09879,-0.77893 l 1.60867,-0.0508 v -0.4064 q 0,-0.72813 -0.38947,-1.0668 -0.37253,-0.33866 -1.04987,-0.33866 -0.67733,0 -1.32079,0.2032 -0.64347,0.18626 -1.28693,0.47413 l -0.82973,-1.71026 q 0.74506,-0.38947 1.64253,-0.6096 0.91439,-0.22013 1.89652,-0.22013 z m 0.3556,5.18159 q -1.21919,0.0339 -1.69333,0.44026 -0.47413,0.4064 -0.47413,1.0668 0,0.57573 0.33867,0.82973 0.33866,0.23707 0.88053,0.23707 0.8128,0 1.3716,-0.47414 0.5588,-0.49106 0.5588,-1.37159 v -0.762 z"
         id="path1809" /><path
         style="color:#000000;font-size:16.9333px;-inkscape-font-specification:'sans-serif Bold';fill:#f2f2f2;stroke:none;stroke-width:7.937;stroke-linecap:butt;stroke-linejoin:miter;-inkscape-stroke:none;paint-order:stroke fill markers"
         d="m 320.53873,101.78445 q 1.49013,0 2.3876,0.8128 0.89746,0.79586 0.89746,2.57386 v 6.02825 h -2.52306 v -5.40172 q 0,-0.99906 -0.3556,-1.49013 -0.3556,-0.508 -1.13453,-0.508 -1.15146,0 -1.5748,0.79587 -0.42333,0.77893 -0.42333,2.25213 v 4.35185 h -2.52306 v -9.24558 h 1.9304 l 0.33866,1.18533 h 0.13547 q 0.3048,-0.47413 0.74506,-0.762 0.44027,-0.3048 0.98214,-0.44026 0.54186,-0.1524 1.11759,-0.1524 z"
         id="path1815" /><path
         style="color:#000000;font-size:16.9333px;-inkscape-font-specification:'sans-serif Bold';fill:#f2f2f2;stroke:none;stroke-width:7.937;stroke-linecap:butt;stroke-linejoin:miter;-inkscape-stroke:none;paint-order:stroke fill markers"
         d="m 329.41177,101.78445 q 0.84667,0 1.524,0.33866 0.67733,0.33867 1.15146,1.016 h 0.0677 l 0.2032,-1.18533 h 2.13359 v 9.26252 q 0,1.32079 -0.52493,2.21826 -0.508,0.89746 -1.54093,1.35466 -1.03293,0.47414 -2.55693,0.47414 -0.98213,0 -1.8288,-0.11854 -0.82973,-0.11853 -1.62559,-0.42333 v -2.01506 q 0.84666,0.3556 1.74413,0.52493 0.9144,0.18627 1.86266,0.18627 0.98213,0 1.45626,-0.52494 0.49107,-0.52493 0.49107,-1.57479 v -0.18627 q 0,-0.28787 0.0169,-0.59266 0.0339,-0.3048 0.0508,-0.54187 h -0.0677 q -0.47413,0.72813 -1.13453,1.04986 -0.6604,0.32174 -1.49013,0.32174 -1.64253,0 -2.57386,-1.25307 -0.9144,-1.26999 -0.9144,-3.52212 0,-2.26907 0.94826,-3.53906 0.94827,-1.27 2.60773,-1.27 z m 0.79587,2.04893 q -0.59267,0 -0.99907,0.32173 -0.38946,0.3048 -0.59266,0.93133 -0.18627,0.6096 -0.18627,1.54093 0,1.38853 0.44027,2.0828 0.44026,0.67733 1.37159,0.67733 0.49107,0 0.84667,-0.11853 0.3556,-0.13547 0.57573,-0.42333 0.23707,-0.3048 0.3556,-0.77894 0.11853,-0.47413 0.11853,-1.15146 v -0.3048 q 0,-0.99907 -0.2032,-1.60866 -0.2032,-0.6096 -0.62653,-0.88054 -0.42333,-0.28786 -1.10066,-0.28786 z"
         id="path1821" /></g></g></svg>
