<?xml version="1.0" encoding="UTF-8" standalone="no"?>
<!-- Created with Inkscape (http://www.inkscape.org/) -->

<svg
   width="500"
   height="500"
   viewBox="0 0 132.29166 132.29167"
   version="1.1"
   id="svg5"
   xml:space="preserve"
   inkscape:version="1.1.1 (3bf5ae0d25, 2021-09-20)"
   sodipodi:docname="logo_fanghl.svg"
   inkscape:export-filename="logo_fanghl.png"
   inkscape:export-xdpi="96"
   inkscape:export-ydpi="96"
   xmlns:inkscape="http://www.inkscape.org/namespaces/inkscape"
   xmlns:sodipodi="http://sodipodi.sourceforge.net/DTD/sodipodi-0.dtd"
   xmlns="http://www.w3.org/2000/svg"
   xmlns:svg="http://www.w3.org/2000/svg"><sodipodi:namedview
     id="namedview7"
     pagecolor="#ffffff"
     bordercolor="#000000"
     borderopacity="0.25"
     inkscape:showpageshadow="2"
     inkscape:pageopacity="0.0"
     inkscape:pagecheckerboard="true"
     inkscape:deskcolor="#d1d1d1"
     inkscape:document-units="mm"
     showgrid="false"
     showguides="true"
     inkscape:zoom="1"
     inkscape:cx="395.5"
     inkscape:cy="313"
     inkscape:window-width="1920"
     inkscape:window-height="1011"
     inkscape:window-x="0"
     inkscape:window-y="0"
     inkscape:window-maximized="1"
     inkscape:current-layer="svg5"
     inkscape:pageshadow="0"
     inkscape:guide-bbox="true"><inkscape:grid
       type="xygrid"
       id="grid3590"
       originx="0"
       originy="0"
       spacingy="1"
       spacingx="1"
       units="mm"
       visible="false" /><sodipodi:guide
       position="-11.407056,134.14685"
       orientation="0.70710678,-0.70710678"
       id="guide891" /><sodipodi:guide
       position="-38.893748,128.32292"
       orientation="1,0"
       id="guide893" /><sodipodi:guide
       position="74.87708,75.935419"
       orientation="0.70710678,-0.70710678"
       id="guide895" /><sodipodi:guide
       position="76.993746,55.297918"
       orientation="-0.70710678,-0.70710678"
       id="guide897" /></sodipodi:namedview><defs
     id="defs2" /><g
     id="g984"><path
       style="fill:#ffffff;fill-opacity:1;stroke:none;stroke-width:22.1599;stroke-dasharray:none;stroke-opacity:1;paint-order:stroke fill markers"
       d="m 66.147289,61.454581 c -2.479613,0 -4.692707,2.213096 -4.692707,4.69271 0,2.479625 2.213094,4.689779 4.692707,4.689794 2.479626,-1.5e-5 4.689779,-2.210169 4.689795,-4.689794 -1.6e-5,-2.479614 -2.210169,-4.69271 -4.689795,-4.69271 z"
       id="path114" /><g
       id="g961"
       transform="translate(-0.11297442,-1.1155008)"><path
         style="fill:#999999;fill-opacity:1;stroke:none;stroke-width:14.7392;stroke-dasharray:none;stroke-opacity:1;paint-order:stroke fill markers"
         d="m 79.643329,53.864541 c -3.06779,0.05561 -6.238252,0.675392 -9.108618,1.833867 -1.476262,0.595818 -2.85448,1.343608 -4.118611,2.207875 2.965119,0.05096 5.245181,1.994586 7.32578,3.792404 2.765315,2.389472 4.99649,5.426362 6.39948,8.902557 2.047365,5.072786 2.577502,10.864319 1.441126,15.913757 -2.379922,10.57515 -9.721276,18.079899 -18.75919,22.087149 -9.037926,4.00724 -19.79512,4.59648 -29.293432,1.44436 -5.551997,-1.84249 -10.491297,-4.70725 -14.744577,-8.31215 10.65463,14.6599 27.930081,24.18456 47.474492,24.18457 8.725105,0 17.031856,-0.98026 24.427448,-5.31557 7.395592,-4.33531 13.038553,-12.49724 15.991273,-21.394689 2.94413,-8.871566 2.38718,-19.048058 -1.3578,-27.494445 -3.74497,-8.446379 -10.60011,-15.140395 -20.354053,-17.335505 -1.679885,-0.378059 -3.482642,-0.547555 -5.323318,-0.51418 z"
         id="path113" /><path
         style="fill:#999999;fill-opacity:1;stroke:none;stroke-width:14.7392;stroke-dasharray:none;stroke-opacity:1;paint-order:stroke fill markers"
         d="m 86.069938,24.965789 c -5.305852,0.03346 -10.603916,1.130987 -15.355006,3.237527 -8.446368,3.74496 -15.14169,10.599494 -17.336795,20.353409 -1.00815,4.479697 -0.533868,9.840021 1.319686,14.432582 0.595242,1.474837 1.342494,2.851957 2.205937,4.115381 0.05147,-2.970262 2.003273,-5.251333 3.805324,-7.334177 2.387509,-2.759529 5.419689,-4.985575 8.89093,-6.386561 3.80459,-1.535533 8.014965,-2.21703 12.012186,-1.982438 1.332413,0.0782 2.641797,0.257219 3.904155,0.541311 10.575149,2.379924 18.079275,9.721915 22.086505,18.759836 4.00725,9.037915 4.59713,19.794476 1.445,29.292786 -1.8395,5.543025 -4.69806,10.475915 -8.29471,14.724555 14.64781,-10.65536 24.16325,-27.922757 24.16325,-47.457698 0,-8.725619 -0.98101,-17.034384 -5.31621,-24.429387 -4.3352,-7.395003 -12.49456,-13.035291 -21.390166,-15.987396 -3.881297,-1.288053 -8.013307,-1.905755 -12.140086,-1.87973 z"
         id="path104" /><path
         style="fill:#999999;fill-opacity:1;stroke:none;stroke-width:14.7392;stroke-dasharray:none;stroke-opacity:1;paint-order:stroke fill markers"
         d="M 31.788369,19.787164 C 17.127281,30.441726 7.6012165,47.71738 7.6012155,67.262302 c 0,8.711783 0.9694776,16.995 5.3007095,24.393213 4.331232,7.398213 12.50512,13.064875 21.414713,16.021635 8.871568,2.94412 19.046769,2.38909 27.493153,-1.35586 8.446389,-3.74498 15.141686,-10.59947 17.336798,-20.353412 1.00815,-4.479714 0.533877,-9.840001 -1.319687,-14.432581 -0.596442,-1.477829 -1.344735,-2.857664 -2.21046,-4.123134 -0.04889,2.967205 -1.993247,5.24945 -3.791758,7.331594 -2.388394,2.765054 -5.425151,4.994845 -8.900619,6.397542 -5.072796,2.047374 -10.864962,2.576848 -15.914403,1.44048 C 36.434514,80.201858 28.929105,72.859859 24.921863,63.821943 20.914621,54.784022 20.326036,44.027469 23.478153,34.529158 25.32019,28.978533 28.18477,24.039734 31.788369,19.787164 Z"
         id="path103" /><path
         style="fill:#999999;fill-opacity:1;stroke:none;stroke-width:14.7392;stroke-dasharray:none;stroke-opacity:1;paint-order:stroke fill markers"
         d="m 66.259779,8.6037383 c -8.71446,8e-7 -17.004033,0.9714178 -24.400965,5.3032937 -7.396932,4.331876 -13.055884,12.502683 -16.011297,21.408253 -2.944127,8.871567 -2.387815,19.048703 1.357153,27.495092 3.744967,8.446386 10.598176,15.14104 20.352117,17.336151 4.479718,1.008149 9.840006,0.533877 14.432581,-1.319688 1.476046,-0.595725 2.85432,-1.34349 4.118611,-2.207875 -2.972081,-0.04959 -5.255184,-2.001963 -7.339345,-3.804677 -2.759651,-2.386984 -4.98469,-5.420707 -6.385269,-8.89093 C 50.335983,58.850546 49.807803,53.058417 50.944177,48.008955 53.324105,37.43378 60.665426,29.9297 69.703366,25.922448 c 4.518968,-2.003625 9.46716,-3.15253 14.473277,-3.406769 5.006118,-0.254239 10.069052,0.38635 14.818216,1.962412 5.544401,1.839972 10.478441,4.699387 14.727781,8.297298 C 103.0677,18.123018 85.797871,8.6037373 66.259779,8.6037383 Z"
         id="path102" /></g></g><g
     inkscape:label="Layer 1"
     inkscape:groupmode="layer"
     id="layer1" /></svg>
